<?xml version="1.0" encoding="UTF-8" standalone="no"?>
<svg
   xmlns:dc="http://purl.org/dc/elements/1.1/"
   xmlns:cc="http://creativecommons.org/ns#"
   xmlns:rdf="http://www.w3.org/1999/02/22-rdf-syntax-ns#"
   xmlns:svg="http://www.w3.org/2000/svg"
   xmlns="http://www.w3.org/2000/svg"
   xmlns:sodipodi="http://sodipodi.sourceforge.net/DTD/sodipodi-0.dtd"
   xmlns:inkscape="http://www.inkscape.org/namespaces/inkscape"
   width="91.999268mm"
   height="98.340179mm"
   viewBox="0 0 91.999267 98.340179"
   version="1.1"
   id="svg9457"
   inkscape:version="1.0.2-2 (e86c870879, 2021-01-15)"
   sodipodi:docname="heart.svg">
  <defs
     id="defs9451" />
  <sodipodi:namedview
     id="base"
     pagecolor="#ffffff"
     bordercolor="#666666"
     borderopacity="1.0"
     inkscape:pageopacity="0.0"
     inkscape:pageshadow="2"
     inkscape:zoom="1.28"
     inkscape:cx="102.04812"
     inkscape:cy="180.32952"
     inkscape:document-units="mm"
     inkscape:current-layer="layer1"
     inkscape:document-rotation="0"
     showgrid="false"
     fit-margin-top="0"
     fit-margin-left="0"
     fit-margin-right="0"
     fit-margin-bottom="0"
     inkscape:window-width="958"
     inkscape:window-height="1018"
     inkscape:window-x="1913"
     inkscape:window-y="0"
     inkscape:window-maximized="0" />
  <metadata
     id="metadata9454">
    <rdf:RDF>
      <cc:Work
         rdf:about="">
        <dc:format>image/svg+xml</dc:format>
        <dc:type
           rdf:resource="http://purl.org/dc/dcmitype/StillImage" />
        <dc:title></dc:title>
      </cc:Work>
    </rdf:RDF>
  </metadata>
  <g
     inkscape:label="Layer 1"
     inkscape:groupmode="layer"
     id="layer1"
     transform="translate(-29.308647,-71.7855)">
    <path
       sodipodi:nodetypes="ccccccccccccccccccccc"
       id="path30"
       d="m 74.684802,169.83829 c -0.09081,-0.16358 -0.48119,-1.34626 -0.867524,-2.62818 -2.448399,-8.12427 -6.993575,-16.35101 -14.605066,-26.43508 -2.859625,-3.78856 -5.551244,-7.14339 -12.829487,-15.99065 -8.42732,-10.24404 -10.841266,-13.5257 -13.278861,-18.05203 -1.439456,-2.6729 -2.931172,-6.7399 -3.422065,-9.329895 -0.490612,-2.588493 -0.498611,-6.817458 -0.01706,-9.019516 1.958784,-8.957244 9.915184,-15.714851 19.429135,-16.50174 10.898946,-0.901438 20.169886,4.604377 25.041068,14.871361 l 1.087745,2.292633 0.818666,-1.811168 c 1.216456,-2.691196 2.387962,-4.511355 4.365339,-6.782366 5.034486,-5.782109 11.026126,-8.614471 18.24419,-8.624379 3.233198,-0.0044 5.085898,0.263919 7.841038,1.135737 4.1206,1.303896 7.22248,3.335152 9.98502,6.538685 7.19928,8.348495 6.34687,19.722023 -2.52212,33.651718 -2.06887,3.24937 -5.80169,8.05709 -10.93522,14.0841 -5.911607,6.9405 -8.8001,10.46782 -11.757372,14.35765 -7.088581,9.32393 -11.855952,17.79593 -14.478246,25.72899 -0.400026,1.21018 -0.819128,2.33785 -0.931341,2.50593 -0.26058,0.39033 -0.953,0.39519 -1.167836,0.008 z"
       style="fill:#ff0000;fill-opacity:1;stroke-width:0.264583" />
  </g>
</svg>
